<svg width="400" height="100" version="1.1" xmlns="http://www.w3.org/2000/svg" xmlns:xlink="http://www.w3.org/1999/xlink" x="0px" y="0px" viewBox="0 0 400 100" enable-background="new 0 0 400 100" xml:space="preserve">
   
   <path fill="#C6341A" d="M159.3,65.4c0,3.2-2.3,5.4-5.8,5.4h-7.6V60h7.6C157,60,159.3,62.2,159.3,65.4
       M167.3,65.4c0-6.9-5-12.6-13.4-12.6h-16.1V94h8V77.6h5.8l8,16.4h9.3l-9.2-17.8C163.8,74.8,167.3,71.2,167.3,65.4"></path>
   
<polygon fill="#C6341A" points="171.5,52.8 171.5,60 182.3,60 182.3,94 190.3,94 190.3,60 201.1,60 201.1,52.8 "></polygon>
<polygon fill="#C6341A" points="68.6,4.8 68.6,20.9 55,20.9 55,4.8 47.1,4.8 47.1,44.1 55,44.1 55,27.6 68.6,27.6 68.6,44.1 
   76.5,44.1 76.5,4.8 "></polygon>

   <polygon fill="none" stroke="#FFFFFF" stroke-width="0.144" stroke-miterlimit="10" points="76.5,44.1 
      76.5,4.8 68.6,4.8 68.6,20.9 55,20.9 55,4.8 47.1,4.8 47.1,44.1 55,44.1 55,27.6 68.6,27.6 68.6,44.1 	"></polygon>

<polygon fill="#C6341A" points="123.8,4.8 123.8,44.1 150,44.1 150,37.2 131.7,37.2 131.7,4.8 "></polygon>
<polygon fill="none" stroke="#FFFFFF" stroke-width="0.144" stroke-miterlimit="10" points="150,44.1 150,37.2 131.7,37.2 
   131.7,4.8 123.8,4.8 123.8,44.1 "></polygon>
<polygon fill="#2C4492" points="95.6,4.8 109.6,44.1 117.8,44.1 103.8,4.8 "></polygon>
<polygon fill="none" stroke="#C6341A" stroke-width="0.144" stroke-miterlimit="10" points="95.6,4.8 103.8,4.8 117.8,44.1 
   109.6,44.1 "></polygon>
<polygon fill="#C6341A" points="95.1,30.3 90.3,44.1 82.1,44.1 91.1,18.8 "></polygon>
<polygon fill="none" stroke="#FFFFFF" stroke-width="0.144" stroke-miterlimit="10" points="95.1,30.3 90.3,44.1 82.1,44.1 
   91.1,18.8 "></polygon>
<polygon fill="#2C4492" points="109.5,52.9 95.3,94 103.7,94 117.9,52.9 "></polygon>
<polygon fill="#C6341A" points="118.4,79.6 123.4,94 131.8,94 122.6,67.5 "></polygon>
<!--
   <path fill="#C6341A" d="M349.4,26.2c0,0.9-1.1,1.5-2.6,1.5c-1.5,0-2.6-0.6-2.6-1.5
      c0-1.1,1.6-1.7,2.6-1.8C347.8,24.6,349.4,25.2,349.4,26.2 M349.1,19.5c0,0.9-1.3,1.5-2.3,1.6c-1-0.2-2.3-0.7-2.3-1.6
      c0-0.9,0.9-1.4,2.3-1.4C348.2,18.1,349.1,18.7,349.1,19.5 M340,26.7c0,3.1,3.3,4.5,6.8,4.5c3.5,0,6.8-1.4,6.8-4.5
      c0-1.8-1.4-3.3-3.2-4c1.7-0.6,3-1.8,3-3.7c0-3.1-3.4-4.3-6.5-4.3c-3.1,0-6.5,1.2-6.5,4.3c0,1.9,1.3,3.1,3,3.7
      C341.4,23.4,340,24.9,340,26.7 M332.5,30.9h4.1v-16h-3.6l-5.6,5.5l2.4,2.5l2.7-2.7V30.9z M321.3,22.9c0,2.8-0.8,4.6-2.7,4.6
      s-2.7-1.8-2.7-4.6s0.8-4.6,2.7-4.6S321.3,20.1,321.3,22.9 M311.7,22.9c0,4.2,2.2,8.3,6.9,8.3s6.9-4.1,6.9-8.3s-2.2-8.3-6.9-8.3
      S311.7,18.7,311.7,22.9 M296.5,30.9h12.6v-3.6h-6.2c4.3-2.8,6-4.9,6-7.3c0-3.2-2.7-5.3-6.5-5.3c-2.2,0-4.8,0.8-6.5,2.7l2.3,2.7
      c1.2-1.1,2.5-1.8,4.2-1.8c1.2,0,2.3,0.6,2.3,1.7c0,1.6-1.3,2.7-8.2,7.7V30.9z M288.5,28.9c0,1.2,1,2.3,2.3,2.3s2.3-1,2.3-2.3
      c0-1.2-1-2.3-2.3-2.3S288.5,27.7,288.5,28.9 M280.6,30.9h4.1v-16h-3.6l-5.6,5.5l2.4,2.5l2.7-2.7V30.9z M269,30.9h4.1v-16h-3.6
      l-5.6,5.5l2.4,2.5l2.7-2.7V30.9z M258.9,28.9c0,1.2,1,2.3,2.3,2.3s2.3-1,2.3-2.3c0-1.2-1-2.3-2.3-2.3S258.9,27.7,258.9,28.9
       M242.9,28.9c1.5,1.5,3.6,2.3,6.5,2.3c4.2,0,6.8-2.2,6.8-5.6c0-3.2-2.4-5.2-5.2-5.2c-1.4,0-2.7,0.5-3.6,1.3v-3.3h7.6v-3.5h-11.6
      v9.4l2.9,0.7c0.9-0.8,1.9-1.2,3.2-1.2c1.7,0,2.5,0.8,2.5,1.9c0,1-0.9,2-2.6,2c-1.5,0-3.1-0.6-4.2-1.6L242.9,28.9z M227.3,30.9h12.6
      v-3.6h-6.2c4.3-2.8,6-4.9,6-7.3c0-3.2-2.7-5.3-6.5-5.3c-2.2,0-4.8,0.8-6.5,2.7l2.3,2.7c1.2-1.1,2.5-1.8,4.2-1.8
      c1.2,0,2.3,0.6,2.3,1.7c0,1.6-1.3,2.7-8.2,7.7V30.9z M204.2,26.6H217v-3.1h-12.8V26.6z M197.1,28.9c0,1.2,1,2.3,2.3,2.3
      s2.3-1,2.3-2.3c0-1.2-1-2.3-2.3-2.3S197.1,27.7,197.1,28.9 M188.2,18.5v5.9h-3.6L188.2,18.5z M188.2,30.9h4.2V28h1.9v-3.6h-1.9
      v-9.5h-5.7l-6.1,9.9V28h7.7V30.9z M165.5,30.9H178v-3.6h-6.2c4.3-2.8,6-4.9,6-7.3c0-3.2-2.7-5.3-6.5-5.3c-2.2,0-4.8,0.8-6.5,2.7
      l2.3,2.7c1.2-1.1,2.5-1.8,4.2-1.8c1.2,0,2.3,0.6,2.3,1.7c0,1.6-1.3,2.7-8.2,7.7V30.9z"/>
      -->
      <text class="svg-hal-art-appointment" fill="#2C4492" x="165" style="font-size: 1.35rem;font-family: 'Barlow';font-style: normal;font-weight: 700;" y="31">0 8 . - 1 0 . 1 1 . 2 0 2 4</text>

</svg>