<?xml version="1.0" standalone="no"?>
<!DOCTYPE svg PUBLIC "-//W3C//DTD SVG 20010904//EN"
 "http://www.w3.org/TR/2001/REC-SVG-20010904/DTD/svg10.dtd">
<svg version="1.0" xmlns="http://www.w3.org/2000/svg"
 width="512.000000pt" height="512.000000pt" viewBox="0 0 512.000000 512.000000"
 preserveAspectRatio="xMidYMid meet">
<metadata>
Created by potrace 1.11, written by Peter Selinger 2001-2013
</metadata>
<g transform="translate(0.000000,512.000000) scale(0.100000,-0.100000)"
fill="#000000" stroke="none">
<path d="M2227 4713 c-4 -7 -28 -78 -32 -93 -1 -3 -4 -12 -8 -20 -3 -8 -47
-134 -97 -280 -160 -466 -211 -613 -240 -695 -30 -87 -107 -308 -220 -640 -40
-115 -83 -239 -96 -275 -13 -36 -66 -191 -119 -345 -53 -154 -114 -329 -135
-390 -21 -60 -63 -182 -93 -270 -106 -308 -170 -492 -247 -715 -181 -521 -210
-607 -210 -616 0 -9 875 -13 883 -4 3 3 16 39 30 80 14 41 58 167 97 280 40
113 80 230 90 260 10 30 57 168 105 305 48 138 111 320 140 405 29 85 92 268
140 405 48 138 111 320 140 405 30 85 78 227 109 315 30 88 91 266 136 395 45
129 106 305 135 390 30 85 72 209 95 275 23 66 87 251 142 410 55 160 110 320
123 358 l24 67 -444 0 c-244 0 -446 -3 -448 -7z"/>
<path d="M3583 3077 c-45 -132 -166 -479 -198 -567 -14 -41 -28 -79 -29 -85
-2 -5 -6 -17 -9 -25 -3 -8 -17 -49 -31 -90 -14 -41 -50 -147 -81 -235 -31 -88
-58 -166 -59 -174 -1 -7 21 -82 50 -165 29 -83 82 -239 119 -346 36 -107 70
-204 75 -215 11 -27 21 -56 80 -230 28 -82 55 -159 59 -170 5 -11 37 -103 72
-205 34 -102 66 -189 71 -195 5 -6 179 -9 448 -10 242 0 440 0 440 1 0 0 -36
104 -79 230 -43 126 -89 258 -101 294 -12 36 -25 74 -30 85 -5 11 -18 49 -30
85 -30 89 -95 276 -180 520 -40 113 -78 223 -85 245 -8 22 -43 126 -80 230
-37 105 -88 253 -115 330 -59 171 -185 534 -193 555 -3 8 -22 62 -42 119 -19
58 -37 106 -38 107 -2 2 -17 -38 -34 -89z"/>
</g>
</svg>
