<svg width="60%" version="1.1" xmlns="http://www.w3.org/2000/svg" xmlns:xlink="http://www.w3.org/1999/xlink" x="0px" y="0px" viewBox="0 0 350 300" enable-background="new 0 0 350 300" xml:space="preserve">
<text class="svg-hal-art-appointment" x="10" fill="#2C4492" style="font-size: 2.5rem;font-family: 'Barlow';font-style: normal;font-weight: 700;font-size: 2.25rem;" y="275">0 8 . - 1 0 . 1 1 . 2 0 2 4</text>
<!--
	<path fill="#FFCB00" d="M315.9,267.6c0,1.6-1.9,2.6-4.4,2.6c-2.6,0-4.4-1-4.4-2.6
		c0-1.8,2.6-2.8,4.4-3.1C313.2,264.8,315.9,265.8,315.9,267.6 M315.4,256.2c0,1.6-2.2,2.5-3.9,2.8c-1.7-0.3-4-1.2-4-2.8
		c0-1.5,1.5-2.4,4-2.4C313.8,253.8,315.4,254.7,315.4,256.2 M300,268.3c0,5.3,5.7,7.7,11.5,7.7c5.9,0,11.5-2.4,11.5-7.7
		c0-3.1-2.4-5.6-5.5-6.8c2.9-1.1,5.1-3.1,5.1-6.3c0-5.3-5.8-7.2-11.1-7.2c-5.3,0-11.1,2-11.1,7.2c0,3.3,2.2,5.2,5.1,6.3
		C302.4,262.7,300,265.2,300,268.3 M287.4,275.5h7v-27.2h-6.1l-9.5,9.4l4,4.2l4.6-4.6V275.5z M268.5,261.9c0,4.8-1.3,7.9-4.6,7.9
		c-3.3,0-4.6-3.1-4.6-7.9s1.3-7.8,4.6-7.8C267.2,254.1,268.5,257.1,268.5,261.9 M252.3,261.9c0,7.2,3.7,14.1,11.6,14.1
		c7.9,0,11.6-6.9,11.6-14.1s-3.7-14-11.6-14C256,247.9,252.3,254.8,252.3,261.9 M226.6,275.5h21.3v-6.1h-10.5
		c7.3-4.7,10.3-8.3,10.3-12.4c0-5.5-4.6-9-11-9c-3.8,0-8.1,1.3-11,4.5l3.9,4.6c2-1.8,4.2-3,7.1-3c2.1,0,3.9,1,3.9,2.9
		c0,2.7-2.2,4.6-14,13.1V275.5z M213.2,272.2c0,2.1,1.8,3.8,3.8,3.8c2.1,0,3.8-1.8,3.8-3.8c0-2.1-1.8-3.8-3.8-3.8
		C215,268.3,213.2,270.1,213.2,272.2 M200,275.5h7v-27.2h-6.1l-9.5,9.4l4,4.2l4.6-4.6V275.5z M180.4,275.5h7v-27.2h-6.1l-9.5,9.4
		l4,4.2l4.6-4.6V275.5z M163.5,272.2c0,2.1,1.8,3.8,3.8,3.8c2.1,0,3.8-1.8,3.8-3.8c0-2.1-1.8-3.8-3.8-3.8
		C165.3,268.3,163.5,270.1,163.5,272.2 M136.5,272c2.5,2.5,6.1,4,11,4c7,0,11.5-3.7,11.5-9.6c0-5.5-4.1-8.8-8.8-8.8
		c-2.4,0-4.5,0.9-6.1,2.2v-5.6h13v-5.9h-19.7v15.9l4.8,1.2c1.5-1.4,3.2-2,5.4-2c2.8,0,4.2,1.4,4.2,3.3c0,1.8-1.5,3.3-4.4,3.3
		c-2.6,0-5.3-0.9-7.1-2.7L136.5,272z M110.2,275.5h21.3v-6.1h-10.5c7.3-4.7,10.3-8.3,10.3-12.4c0-5.5-4.6-9-11-9
		c-3.8,0-8.1,1.3-11,4.5l3.9,4.6c2-1.8,4.2-3,7.1-3c2.1,0,3.9,1,3.9,2.9c0,2.7-2.2,4.6-14,13.1V275.5z M76.1,268.3h21.7V263H76.1
		V268.3z M64.3,272.2c0,2.1,1.8,3.8,3.8,3.8s3.8-1.8,3.8-3.8c0-2.1-1.8-3.8-3.8-3.8S64.3,270.1,64.3,272.2 M49.2,254.5v9.9h-6.2
		L49.2,254.5z M49.2,275.5h7v-5h3.3v-6.1h-3.3v-16h-9.7l-10.3,16.7v5.5h13V275.5z M10.9,275.5h21.3v-6.1H21.7
		C29,264.7,32,261.1,32,257c0-5.5-4.6-9-11-9c-3.8,0-8.1,1.3-11,4.5l3.9,4.6c2-1.8,4.2-3,7.1-3c2.1,0,3.9,1,3.9,2.9
		c0,2.7-2.2,4.6-14,13.1V275.5z"/>
-->
	<path fill="#C6341A" d="M250.5,155c0,6.8-4.9,11.6-12.5,11.6h-16.2v-23.2H238
		C245.6,143.4,250.5,148.2,250.5,155 M267.7,155c0-14.7-10.6-27-28.6-27h-34.5v88h17.2V181h12.4l17.2,35.1h19.9l-19.7-38
		C260.1,175,267.7,167.4,267.7,155"></path>

<polygon fill="#C6341A" points="276.7,128.1 276.7,143.4 299.7,143.4 299.7,216.1 316.9,216.1 316.9,143.4 339.9,143.4 339.9,128.1 
	"></polygon>
<polygon fill="#C6341A" points="56.7,25.5 56.7,59.8 27.5,59.8 27.5,25.5 10.6,25.5 10.6,109.3 27.5,109.3 27.5,74.2 56.7,74.2 
	56.7,109.3 73.5,109.3 73.5,25.5 "></polygon>
<!--
	<polygon fill="none" stroke="#FFFFFF" stroke-width="0.307" stroke-miterlimit="10" points="
		73.5,109.3 73.5,25.5 56.7,25.5 56.7,59.8 27.5,59.8 27.5,25.5 10.6,25.5 10.6,109.3 27.5,109.3 27.5,74.2 56.7,74.2 56.7,109.3 	
		"/>
	<polygon fill="none" stroke="#FFFFFF" stroke-width="0.307" stroke-miterlimit="10" points="
		230.6,109.3 230.6,94.7 191.5,94.7 191.5,25.5 174.6,25.5 174.6,109.3 	"/>

	<polygon fill="none" stroke="#e4003a" stroke-width="0.307" stroke-miterlimit="10" points="
		114.5,25.4 132,25.4 161.8,109.3 144.3,109.3 	"/>
<polygon fill="none" stroke="#FFFFFF" stroke-width="0.307" stroke-miterlimit="10" points="113.4,79.9 102.9,109.3 85.4,109.3 
	104.6,55.3 "/>
      -->
<polygon fill="#C6341A" points="174.6,25.5 174.6,109.3 230.6,109.3 230.6,94.7 191.5,94.7 191.5,25.5 "></polygon>

<polygon fill="#2C4492" points="114.5,25.4 144.3,109.3 161.8,109.3 132,25.4 "></polygon>

<polygon fill="#C6341A" points="113.4,79.9 102.9,109.3 85.4,109.3 104.6,55.3 "></polygon>

<polygon fill="#2C4492" points="162,128.1 144.2,128.1 113.8,216.1 131.6,216.1 "></polygon>
<polygon fill="#C6341A" points="163.1,185.2 173.8,216.1 191.7,216.1 172.1,159.4 "></polygon>
</svg>