<?xml version="1.0" encoding="UTF-8"?>
<svg id="uuid-7e35243b-7bcb-4b99-abc0-026da837d31b" data-name="Ebene 1" xmlns="http://www.w3.org/2000/svg" viewBox="0 0 232.78 81.7">
  <g>
    <path d="M77.29,60.54c0-4.29,1.45-6.77,4.7-6.77s4.7,2.5,4.7,6.77-1.45,6.77-4.7,6.77-4.7-2.5-4.7-6.77ZM84.79,61.65v-2.22c0-2.52-.79-4.14-2.82-4.14s-2.82,1.62-2.82,4.14v2.22c0,2.52.79,4.14,2.82,4.14s2.82-1.62,2.82-4.14ZM80.8,60.74v-.41c0-.51.3-.9,1.17-.9s1.17.39,1.17.9v.41c0,.51-.3.9-1.17.9s-1.17-.39-1.17-.9Z" fill="#060606"/>
    <path d="M97.11,55.55h-5.9l-.36,4.85h.15c.62-.94,1.35-1.54,2.78-1.54,2.28,0,3.99,1.5,3.99,4.06s-1.71,4.4-4.61,4.4c-2.29,0-3.48-1.13-4.29-2.29l1.35-1.03c.68,1.03,1.39,1.79,2.97,1.79,1.73,0,2.67-1.02,2.67-2.65v-.15c0-1.64-.98-2.61-2.69-2.61-1.2,0-1.82.51-2.35,1.07l-1.52-.21.47-7.24h7.33v1.58-.02Z" fill="#060606"/>
    <path d="M102.99,66.05v-.39c0-.68.41-1.2,1.5-1.2s1.5.53,1.5,1.2v.39c0,.68-.41,1.22-1.5,1.22s-1.5-.55-1.5-1.22Z" fill="#060606"/>
    <path d="M112.98,62.27v-1.79h5.55v1.79h-5.55Z" fill="#060606"/>
    <path d="M122.32,60.54c0-4.29,1.45-6.77,4.7-6.77s4.7,2.5,4.7,6.77-1.45,6.77-4.7,6.77-4.7-2.5-4.7-6.77ZM129.83,61.65v-2.22c0-2.52-.79-4.14-2.82-4.14s-2.82,1.62-2.82,4.14v2.22c0,2.52.79,4.14,2.82,4.14s2.82-1.62,2.82-4.14ZM125.86,60.74v-.41c0-.51.3-.9,1.17-.9s1.17.39,1.17.9v.41c0,.51-.3.9-1.17.9s-1.17-.39-1.17-.9Z" fill="#060606"/>
    <path d="M135.86,67.08l5-11.56h-5.45v2.43h-1.6v-3.97h8.88v1.6l-4.91,11.51h-1.94.02Z" fill="#060606"/>
    <path d="M148.05,66.05v-.39c0-.68.41-1.2,1.5-1.2s1.5.53,1.5,1.2v.39c0,.68-.41,1.22-1.5,1.22s-1.5-.55-1.5-1.22Z" fill="#060606"/>
    <path d="M156.11,60.54c0-4.29,1.45-6.77,4.7-6.77s4.7,2.5,4.7,6.77-1.45,6.77-4.7,6.77-4.7-2.5-4.7-6.77ZM163.62,61.65v-2.22c0-2.52-.79-4.14-2.82-4.14s-2.82,1.62-2.82,4.14v2.22c0,2.52.79,4.14,2.82,4.14s2.82-1.62,2.82-4.14ZM159.63,60.74v-.41c0-.51.3-.9,1.17-.9s1.17.39,1.17.9v.41c0,.51-.3.9-1.17.9s-1.17-.39-1.17-.9Z" fill="#060606"/>
    <path d="M176.57,67.08h-8.86v-1.81l4.32-3.85c1.32-1.15,2.16-2.29,2.16-3.57v-.21c0-1.49-.83-2.33-2.33-2.33s-2.31.88-2.69,2.16l-1.62-.6c.53-1.6,1.77-3.14,4.38-3.14s4.17,1.6,4.17,3.84c0,2.01-1.26,3.48-3.05,4.98l-3.44,2.95h6.94v1.58Z" fill="#060606"/>
    <path d="M181.82,66.05v-.39c0-.68.41-1.2,1.5-1.2s1.5.53,1.5,1.2v.39c0,.68-.41,1.22-1.5,1.22s-1.5-.55-1.5-1.22Z" fill="#060606"/>
    <path d="M199.1,67.08h-8.86v-1.81l4.32-3.85c1.32-1.15,2.16-2.29,2.16-3.57v-.21c0-1.49-.83-2.33-2.33-2.33s-2.31.88-2.69,2.16l-1.62-.6c.53-1.6,1.77-3.14,4.38-3.14s4.17,1.6,4.17,3.84c0,2.01-1.26,3.48-3.05,4.98l-3.44,2.95h6.94v1.58Z" fill="#060606"/>
    <path d="M201.15,60.54c0-4.29,1.45-6.77,4.7-6.77s4.7,2.5,4.7,6.77-1.45,6.77-4.7,6.77-4.7-2.5-4.7-6.77ZM208.67,61.65v-2.22c0-2.52-.79-4.14-2.82-4.14s-2.82,1.62-2.82,4.14v2.22c0,2.52.79,4.14,2.82,4.14s2.82-1.62,2.82-4.14ZM204.69,60.74v-.41c0-.51.3-.9,1.17-.9s1.17.39,1.17.9v.41c0,.51-.3.9-1.17.9s-1.17-.39-1.17-.9Z" fill="#060606"/>
    <path d="M221.61,67.08h-8.86v-1.81l4.32-3.85c1.32-1.15,2.16-2.29,2.16-3.57v-.21c0-1.49-.83-2.33-2.33-2.33s-2.31.88-2.69,2.16l-1.62-.6c.53-1.6,1.77-3.14,4.38-3.14s4.17,1.6,4.17,3.84c0,2.01-1.26,3.48-3.05,4.98l-3.44,2.95h6.94v1.58Z" fill="#060606"/>
    <path d="M225.95,67.08l5-11.56h-5.45v2.43h-1.6v-3.97h8.88v1.6l-4.91,11.51h-1.94.02Z" fill="#060606"/>
  </g>
  <g>
    <g>
      <g>
        <path d="M.06,54.48h1.52c1.31,0,1.95.92,1.95,2.64s-.64,2.64-1.95,2.64H.06v-5.28ZM1.54,59.14c.8,0,1.22-.58,1.22-1.6v-.85c0-1.01-.42-1.6-1.22-1.6h-.76v4.04h.76Z" fill="#060606"/>
        <path d="M4.71,59.18h1.37v-2.74h-1.37v-.58h2.07v3.32h1.29v.58h-3.36v-.58ZM5.92,54.66v-.14c0-.23.14-.42.51-.42s.51.18.51.42v.14c0,.23-.14.41-.51.41s-.51-.18-.51-.41Z" fill="#060606"/>
        <path d="M8.95,57.82c0-1.26.73-2.05,1.81-2.05s1.76.79,1.76,1.92v.3h-2.84v.16c0,.65.43,1.12,1.14,1.12.51,0,.89-.24,1.1-.64l.48.37c-.25.5-.8.86-1.59.86-1.16,0-1.86-.79-1.86-2.03ZM9.67,57.44v.06h2.11v-.08c0-.65-.41-1.09-1.02-1.09s-1.09.47-1.09,1.11Z" fill="#060606"/>
        <path d="M18.23,54.16h.7v2.35h.03c.17-.39.48-.74,1.12-.74.8,0,1.34.54,1.34,1.48v2.51h-.7v-2.39c0-.67-.3-1.01-.87-1.01-.46,0-.92.23-.92.72v2.68h-.7v-5.6Z" fill="#060606"/>
        <path d="M25.81,59.76c-.46,0-.67-.26-.71-.64h-.04c-.17.45-.55.73-1.18.73-.8,0-1.32-.45-1.32-1.18s.53-1.15,1.69-1.15h.79v-.35c0-.55-.31-.83-.89-.83-.51,0-.82.21-1.03.56l-.45-.36c.2-.41.72-.78,1.53-.78.95,0,1.54.49,1.54,1.35v2.07h.52v.58h-.46ZM25.04,58.61v-.6h-.79c-.67,0-.98.2-.98.56v.16c0,.38.3.57.76.57.58,0,1-.29,1-.69Z" fill="#060606"/>
        <path d="M27.21,59.18h1.32v-4.43h-1.32v-.58h2.03v5.02h1.33v.58h-3.36v-.58Z" fill="#060606"/>
        <path d="M31.74,59.18h1.32v-4.43h-1.32v-.58h2.03v5.02h1.33v.58h-3.36v-.58Z" fill="#060606"/>
        <path d="M36.18,57.82c0-1.26.73-2.05,1.81-2.05s1.76.79,1.76,1.92v.3h-2.84v.16c0,.65.43,1.12,1.14,1.12.51,0,.89-.24,1.1-.64l.48.37c-.25.5-.8.86-1.59.86-1.16,0-1.86-.79-1.86-2.03ZM36.9,57.44v.06h2.11v-.08c0-.65-.41-1.09-1.02-1.09s-1.09.47-1.09,1.11Z" fill="#060606"/>
        <path d="M40.71,59.1l.45-.4c.36.38.78.6,1.38.6.57,0,.97-.2.97-.63,0-.37-.3-.47-.65-.52l-.61-.09c-.58-.08-1.32-.26-1.32-1.09s.67-1.2,1.62-1.2c.71,0,1.23.23,1.6.62l-.43.42c-.19-.23-.54-.48-1.2-.48-.57,0-.89.2-.89.57s.31.48.65.53l.61.09c.59.08,1.32.26,1.32,1.09,0,.78-.65,1.24-1.68,1.24-.82,0-1.43-.3-1.82-.76Z" fill="#060606"/>
        <path d="M45.36,57.81c0-1.24.68-2.04,1.81-2.04.77,0,1.25.37,1.47.91l-.55.3c-.14-.39-.45-.62-.92-.62-.67,0-1.06.47-1.06,1.12v.67c0,.65.38,1.12,1.07,1.12.5,0,.82-.26,1.01-.66l.51.33c-.23.53-.73.92-1.53.92-1.14,0-1.82-.8-1.82-2.04Z" fill="#060606"/>
        <path d="M50,54.16h.7v2.35h.03c.17-.39.48-.74,1.12-.74.8,0,1.34.54,1.34,1.48v2.51h-.7v-2.39c0-.67-.3-1.01-.87-1.01-.46,0-.92.23-.92.72v2.68h-.7v-5.6Z" fill="#060606"/>
        <path d="M54.33,57.82c0-1.26.73-2.05,1.81-2.05s1.76.79,1.76,1.92v.3h-2.84v.16c0,.65.43,1.12,1.14,1.12.51,0,.89-.24,1.1-.64l.48.37c-.25.5-.8.86-1.59.86-1.16,0-1.86-.79-1.86-2.03ZM55.05,57.44v.06h2.11v-.08c0-.65-.41-1.09-1.02-1.09s-1.09.47-1.09,1.11Z" fill="#060606"/>
        <path d="M1.44,64.81l-.7.85v1.66h-.73v-5.28h.73v2.65h.03l.67-.88,1.44-1.77h.86l-1.8,2.22,1.86,3.06h-.85l-1.51-2.51Z" fill="#060606"/>
        <path d="M7.06,66.67h-.03c-.17.39-.48.74-1.12.74-.8,0-1.34-.54-1.34-1.48v-2.51h.7v2.39c0,.67.3,1.01.87,1.01.46,0,.92-.23.92-.72v-2.68h.7v3.9h-.7v-.65Z" fill="#060606"/>
        <path d="M9.16,67.32v-3.9h.7v.65h.03c.17-.39.48-.74,1.12-.74.8,0,1.34.54,1.34,1.48v2.51h-.7v-2.39c0-.67-.3-1.01-.87-1.01-.46,0-.92.23-.92.72v2.68h-.7Z" fill="#060606"/>
        <path d="M13.49,66.66l.45-.4c.36.38.78.6,1.38.6.57,0,.97-.2.97-.63,0-.37-.3-.47-.65-.52l-.61-.09c-.58-.08-1.32-.26-1.32-1.09s.67-1.2,1.62-1.2c.71,0,1.23.23,1.6.62l-.43.42c-.19-.23-.54-.48-1.2-.48-.57,0-.89.2-.89.57s.31.48.65.53l.61.09c.59.08,1.32.26,1.32,1.09,0,.78-.65,1.24-1.68,1.24-.82,0-1.43-.3-1.82-.76Z" fill="#060606"/>
        <path d="M20.02,67.32c-.64,0-.93-.39-.93-.94v-2.38h-1.25v-.58h.91c.27,0,.38-.1.38-.38v-1h.67v1.38h1.73v.58h-1.73v2.74h1.73v.58h-1.51Z" fill="#060606"/>
        <path d="M22.45,67.32v-3.9h.63v.48h.04c.12-.31.32-.57.74-.57s.67.25.72.62h.03c.14-.36.38-.62.84-.62.62,0,.81.45.81,1.27v2.72h-.63v-2.62c0-.61-.12-.81-.45-.81-.29,0-.51.2-.51.58v2.85h-.63v-2.62c0-.61-.12-.81-.45-.81-.3,0-.51.2-.51.58v2.85h-.63Z" fill="#060606"/>
        <path d="M27.1,65.38c0-1.26.73-2.05,1.81-2.05s1.76.79,1.76,1.92v.3h-2.84v.16c0,.65.43,1.12,1.14,1.12.51,0,.89-.24,1.1-.64l.48.37c-.25.5-.8.86-1.59.86-1.16,0-1.86-.79-1.86-2.03ZM27.83,65v.06h2.11v-.08c0-.65-.41-1.09-1.02-1.09s-1.09.47-1.09,1.11Z" fill="#060606"/>
        <path d="M31.64,66.66l.45-.4c.36.38.78.6,1.38.6.57,0,.97-.2.97-.63,0-.37-.3-.47-.65-.52l-.61-.09c-.58-.08-1.32-.26-1.32-1.09s.67-1.2,1.62-1.2c.71,0,1.23.23,1.6.62l-.43.42c-.19-.23-.54-.48-1.2-.48-.57,0-.89.2-.89.57s.31.48.65.53l.61.09c.59.08,1.32.26,1.32,1.09,0,.78-.65,1.24-1.68,1.24-.82,0-1.43-.3-1.82-.76Z" fill="#060606"/>
        <path d="M36.18,66.66l.45-.4c.36.38.78.6,1.38.6.57,0,.97-.2.97-.63,0-.37-.3-.47-.65-.52l-.61-.09c-.58-.08-1.32-.26-1.32-1.09s.67-1.2,1.62-1.2c.71,0,1.23.23,1.6.62l-.43.42c-.19-.23-.54-.48-1.2-.48-.57,0-.89.2-.89.57s.31.48.65.53l.61.09c.59.08,1.32.26,1.32,1.09,0,.78-.65,1.24-1.68,1.24-.82,0-1.43-.3-1.82-.76Z" fill="#060606"/>
        <path d="M40.71,65.38c0-1.26.73-2.05,1.81-2.05s1.76.79,1.76,1.92v.3h-2.84v.16c0,.65.43,1.12,1.14,1.12.51,0,.89-.24,1.1-.64l.48.37c-.25.5-.8.86-1.59.86-1.16,0-1.86-.79-1.86-2.03ZM41.44,65v.06h2.11v-.08c0-.65-.41-1.09-1.02-1.09s-1.09.47-1.09,1.11Z" fill="#060606"/>
      </g>
      <rect x="68.92" y="0" width="15.92" height="15.92" rx="7.96" ry="7.96" fill="#c94360"/>
      <g>
        <polygon points="16.57 .49 16.57 22.55 12.13 22.55 12.13 13.29 4.5 13.29 4.5 22.55 .07 22.55 .07 .49 4.5 .49 4.5 9.53 12.13 9.53 12.13 .49 16.57 .49" fill="#060606"/>
        <polygon points="43.11 .49 43.11 22.55 57.81 22.55 57.81 18.67 47.54 18.67 47.54 .49 43.11 .49" fill="#060606"/>
        <polygon points="27.28 .49 35.14 22.55 39.74 22.55 31.88 .49 27.28 .49" fill="#c94360"/>
        <polygon points="19.71 22.55 24.31 22.55 27 14.8 24.76 8.35 19.71 22.55" fill="#060606"/>
        <polygon points="35.05 26.89 27.44 48.94 31.94 48.94 39.56 26.89 35.05 26.89" fill="#c94360"/>
        <polygon points="68.24 26.89 68.24 30.75 74.03 30.75 74.03 48.94 78.31 48.94 78.31 30.75 84.09 30.75 84.09 26.89 68.24 26.89" fill="#060606"/>
        <polygon points="39.83 41.22 42.51 48.94 47.02 48.94 42.08 34.73 39.83 41.22" fill="#060606"/>
        <path d="M61.75,39.3c2.96-.9,4.32-3.68,4.12-6.48-.15-2.07-.97-3.71-2.42-4.83-1.21-.98-2.76-1.48-4.67-1.48h-8.95v22.43l4.35.05v-8.94h3.16l4.36,8.94h5.07l-5.01-9.7ZM60.83,35.37c-.65.72-1.44.98-2.27.98h-4.31v-5.88h4.39c.64.03,1.19.21,1.81.63.43.29,1.04,1.18,1.07,1.94.04.98-.06,1.65-.68,2.33Z" fill="#060606"/>
      </g>
    </g>
    <g>
      <path d="M84.56,50.86c.19.02.38.05.56.09,0-1.73-.13-3.48-.44-5.22-.46-2.62-1.25-5.16-2.35-7.55l-.51.23c1.08,2.35,1.86,4.85,2.31,7.42.29,1.68.42,3.37.43,5.04Z" fill="#c94360"/>
      <path d="M77.8,70.02c-4.57,5.63-10.92,9.4-18.12,10.66-10.37,1.82-20.74-1.81-27.74-9.69l-.42.37c5.91,6.67,14.19,10.34,22.88,10.34,1.78,0,3.58-.16,5.38-.47,7.38-1.29,13.87-5.17,18.53-10.95-.17-.09-.34-.17-.5-.26Z" fill="#c94360"/>
    </g>
  </g>
</svg>